<?xml version="1.0" encoding="UTF-8" standalone="no"?>
<svg
   xmlns:dc="http://purl.org/dc/elements/1.1/"
   xmlns:cc="http://creativecommons.org/ns#"
   xmlns:rdf="http://www.w3.org/1999/02/22-rdf-syntax-ns#"
   xmlns:svg="http://www.w3.org/2000/svg"
   xmlns="http://www.w3.org/2000/svg"
   xmlns:sodipodi="http://sodipodi.sourceforge.net/DTD/sodipodi-0.dtd"
   xmlns:inkscape="http://www.inkscape.org/namespaces/inkscape"
   version="1.1"
   id="svg2"
   viewBox="0 0 744.09448819 1052.3622047"
   height="297mm"
   width="210mm"
   inkscape:version="0.91 r13725"
   sodipodi:docname="iniciales.svg">
  <sodipodi:namedview
     pagecolor="#ffffff"
     bordercolor="#666666"
     borderopacity="1"
     objecttolerance="10"
     gridtolerance="10"
     guidetolerance="10"
     inkscape:pageopacity="0"
     inkscape:pageshadow="2"
     inkscape:window-width="1366"
     inkscape:window-height="705"
     id="namedview4146"
     showgrid="false"
     showguides="false"
     inkscape:zoom="0.49"
     inkscape:cx="54.515507"
     inkscape:cy="532.70572"
     inkscape:window-x="-8"
     inkscape:window-y="-8"
     inkscape:window-maximized="1"
     inkscape:current-layer="g4937" />
  <defs
     id="defs4">
    <pattern
       patternUnits="userSpaceOnUse"
       width="2"
       height="1"
       patternTransform="translate(0,0) scale(10,10)"
       id="Strips1_1">
      <rect
         style="fill:black;stroke:none"
         x="0"
         y="-0.5"
         width="1"
         height="2"
         id="rect4863" />
    </pattern>
  </defs>
  <metadata
     id="metadata7">
    <rdf:RDF>
      <cc:Work
         rdf:about="">
        <dc:format>image/svg+xml</dc:format>
        <dc:type
           rdf:resource="http://purl.org/dc/dcmitype/StillImage" />
        <dc:title />
      </cc:Work>
    </rdf:RDF>
  </metadata>
  <g
     id="g4937"
     transform="matrix(1.2919032,0,0,1.3501792,-125.0278,53.418458)">
    <flowRoot
       transform="matrix(12.217666,0,0,-14.606383,-1900.8076,2655.3765)"
       style="font-style:normal;font-weight:normal;font-size:40px;line-height:125%;font-family:sans-serif;letter-spacing:0px;word-spacing:0px;fill:#000080;fill-opacity:1;stroke:url(#Strips1_1);stroke-width:1px;stroke-linecap:butt;stroke-linejoin:miter;stroke-opacity:1"
       id="flowRoot3336"
       xml:space="preserve"><flowRegion
         style="stroke:url(#Strips1_1)"
         id="flowRegion3338"><rect
           style="fill:#000080;stroke:url(#Strips1_1);stroke-linejoin:miter"
           y="135.21935"
           x="114.28571"
           height="51.428577"
           width="111.42857"
           id="rect3340" /></flowRegion><flowPara
         style="stroke:url(#Strips1_1);stroke-linejoin:miter"
         id="flowPara3342">AFGU</flowPara></flowRoot>    <rect
       style="fill:#000000;stroke-linejoin:miter"
       id="rect4914"
       width="1301.7137"
       height="54.823071"
       x="-501.40805"
       y="-19.453836" />
    <rect
       style="fill:#000000;stroke-linejoin:miter"
       id="rect4914-8"
       width="1301.7137"
       height="54.823071"
       x="-490.08884"
       y="553.1427" />
    <path
       style="fill:#000000;stroke-linejoin:miter"
       d="m -66.944588,495.17704 c -1.579713,-2.63234 -13.205357,-4.78608 -25.834748,-4.78608 l -22.962514,0 0,-203.4075 0,-203.407525 16.265764,0 16.265732,0 -1.36e-4,101.703735 -1.36e-4,101.70379 55.981194,-1.70708 c 30.7896974,-0.93892 65.296397,-0.26853 76.681587,1.48973 19.803565,3.05838 20.700393,3.8972 20.700393,19.36156 0,15.46438 -0.896828,16.30318 -20.700393,19.36156 -11.38519,1.75827 -45.8918896,2.42869 -76.681587,1.48976 l -55.981194,-1.70706 1.36e-4,65.52585 c 1.36e-4,64.61562 3.291975,78.97332 15.276636,66.63099 6.607879,-6.80512 117.765114,-7.29803 121.820602,-0.54025 1.579763,2.63236 12.159733,4.78608 23.511101,4.78608 19.833818,0 20.638869,0.56006 20.638869,14.35818 0,13.79816 -0.805051,14.35818 -20.638869,14.35818 -11.351368,0 -21.931338,2.15374 -23.511101,4.78608 -1.664572,2.77373 -27.066407,4.78603 -60.4156682,4.78603 -33.3492098,0 -58.7510618,-2.0123 -60.4156678,-4.78603 z"
       id="path4152"
       inkscape:connector-curvature="0" />
    <path
       style="fill:#000080;stroke-linejoin:miter"
       d="m 534.86615,351.35594 -0.0228,-150.52156 12.68463,-35.89545 c 16.13964,-45.67263 40.18471,-72.09406 73.48946,-80.752358 12.696,-3.300577 30.96963,-8.37836 40.60809,-11.283945 34.35675,-10.357014 85.34671,10.471558 110.12305,44.983523 18.90398,26.33212 23.38025,69.52764 23.38623,225.67535 0.007,154.61717 -0.28185,156.40157 -25.22305,156.40157 l -11.95033,0 0,-149.89219 c 0,-168.24063 -2.44423,-186.19912 -28.91867,-212.47544 -10.76199,-10.68147 -24.46676,-17.49258 -46.70579,-23.21223 -29.71193,-7.64161 -32.65913,-7.62905 -52.62747,0.22445 -25.97388,10.21556 -45.66843,36.37748 -52.66048,69.95337 -2.9058,13.95356 -4.98199,82.66473 -4.98199,164.8767 l 0,140.95318 -13.01263,0 c -7.15694,0 -15.52219,2.58446 -18.58945,5.74326 -4.33753,4.46699 -5.5818,-27.70596 -5.59923,-144.77829 z"
       id="path4154"
       inkscape:connector-curvature="0" />
    <path
       style="fill:#000080;stroke-linejoin:miter"
       d="m -125.03656,286.98346 0,-217.765703 27.884138,0 27.884153,0 0,108.920923 0,108.92091 62.7350999,-0.0382 c 47.0678361,-0.0285 62.7361701,-1.53214 62.7393661,-6.02061 0.0011,-3.45542 5.893177,-5.98238 13.946351,-5.98238 l 13.942085,0 0,31.10937 0,31.10939 -13.942085,0 c -8.053174,0 -13.943904,-2.52696 -13.946351,-5.98257 -0.0011,-4.48851 -15.67153,-5.99209 -62.7393661,-6.02063 l -62.7350999,-0.038 0,65.44755 c 0,47.91221 -1.556429,66.07811 -5.809202,67.80092 -3.195048,1.29438 2.556046,0.93543 12.780262,-0.79765 26.908262,-4.56116 97.566331,-3.29012 131.287899,2.36169 15.975276,2.67744 29.046028,3.07087 29.046028,0.87421 0,-2.1967 -9.41094,-3.99395 -20.913128,-3.99395 -11.502205,0 -20.913145,-2.1537 -20.913145,-4.78604 0,-2.63234 11.502222,-4.78605 25.560473,-4.78605 l 25.560502,0 0,28.71635 0,28.71636 -25.560502,0 c -14.058251,0 -25.560473,-2.15375 -25.560473,-4.78609 0,-2.63232 9.41094,-4.78602 20.913145,-4.78602 11.502188,0 20.913128,-1.79727 20.913128,-3.99393 0,-2.19664 -13.070752,-1.87257 -29.046028,0.72016 -33.98947,5.51644 -98.195188,6.64992 -147.553665,2.60494 -19.170359,-1.571 -24.921485,-1.95066 -12.780262,-0.84364 31.594986,2.88068 27.295526,11.08458 -5.809185,11.08458 l -27.884138,0 0,-217.76569 z m 45.267114,68.20134 c -0.907484,-16.45209 -1.649973,-2.99129 -1.649973,29.91285 0,32.90416 0.742489,46.36498 1.649973,29.91289 0.907483,-16.45207 0.907483,-43.37369 0,-59.82574 z M 73.918599,305.30113 c -0.851007,-10.37104 -4.30048,-18.53909 -8.413413,-19.92257 -5.968367,-2.00752 -6.056812,-1.20416 -0.614937,5.58512 3.49582,4.36144 5.354313,13.32663 4.129946,19.92255 -1.224351,6.59597 -0.298546,11.99265 2.057341,11.99265 2.355871,0 3.634387,-7.90998 2.841063,-17.57775 z M -79.738633,135.29133 c -0.816693,-29.75962 -1.487766,-6.72647 -1.491301,51.18487 -0.0051,57.91131 0.6647,82.26008 1.484911,54.10843 0.820193,-28.15169 0.823082,-75.53366 0.0051,-105.2933 l -1.19e-4,0 z"
       id="path4872"
       inkscape:connector-curvature="0" />
    <path
       style="fill:#000080;stroke-linejoin:miter"
       d=""
       id="path4874"
       inkscape:connector-curvature="0"
       transform="matrix(0.7740518,0,0,0.74064243,96.777994,-39.563976)" />
    <path
       style="fill:#000080;stroke-linejoin:miter"
       d="m 534.88853,347.80273 0,-152.49714 12.05381,-30.738 c 22.43309,-57.20602 42.58088,-75.1688 99.18349,-88.427009 41.67119,-9.760778 72.84031,-4.599721 101.5444,16.813971 24.51749,18.290438 36.07415,39.377188 42.2891,77.162468 7.35863,44.73852 7.02708,316.45873 -0.39545,324.10281 -3.06728,3.15878 -11.43251,5.74324 -18.58947,5.74324 l -13.01259,0 0,-145.73923 c 0,-90.63354 -1.99452,-155.32904 -5.27503,-171.1016 -9.31996,-44.81025 -48.06434,-72.80234 -100.27532,-72.44698 -27.55605,0.1875 -49.74249,16.98136 -65.36528,49.47761 l -12.6551,26.32333 -1.50771,151.95739 c -1.46869,148.02593 -1.74715,151.95737 -10.76209,151.95737 -5.08988,0 -13.29948,2.22951 -18.24354,4.95445 -8.79992,4.85015 -8.98922,1.7437 -8.98922,-147.54268 z"
       id="path4876"
       inkscape:connector-curvature="0" />
    <path
       style="fill:#000080;stroke-linejoin:miter"
       d="m -313.06357,495.49545 c -1.68482,-2.80744 -13.964,-5.10449 -27.28705,-5.10449 l -24.22371,0 -33.7675,-111.10384 c -18.57209,-61.10708 -35.37861,-112.2581 -37.34783,-113.66888 -1.96919,-1.41081 -16.23523,-44.02436 -31.70228,-94.69675 l -28.12193,-92.131619 21.73234,0 21.73232,0 7.81974,25.547449 c 4.30088,14.05111 7.81974,29.52434 7.81974,34.38494 0,4.86063 3.50049,21.68544 7.77887,37.38847 l 7.77884,28.55098 78.78216,-2.91481 c 43.33018,-1.60313 79.58167,-3.73816 80.55882,-4.74449 0.97718,-1.0063 9.50282,-28.11833 18.94586,-60.24893 l 17.16921,-58.419287 18.81003,1.424344 c 18.47534,1.399017 18.78253,1.72237 17.26742,18.175577 -1.30045,14.121946 -115.02315,396.682196 -119.24911,401.150886 -0.78793,0.83323 -2.81115,-0.78208 -4.49594,-3.58955 z m -10.35215,-68.76299 c 6.86663,-24.48287 12.51214,-48.71229 12.54557,-53.84318 0.0333,-5.13089 8.31323,-36.15904 18.39944,-68.95146 10.08624,-32.79242 17.53631,-60.44882 16.55571,-61.45869 -0.9806,-1.00985 -31.54758,-3.04955 -67.92666,-4.53271 l -66.14377,-2.69658 2.83986,11.18368 c 10.44334,41.12726 66.49987,224.72384 68.62593,224.76389 1.44055,0.0272 8.23732,-19.98211 15.10392,-44.46495 z"
       id="path4878"
       inkscape:connector-curvature="0" />
    <path
       style="fill:#000080;stroke-linejoin:miter"
       d=""
       id="path4880"
       inkscape:connector-curvature="0"
       transform="matrix(0.7740518,0,0,0.74064243,96.777994,-39.563976)" />
    <path
       style="fill:#0000ff;stroke-linejoin:miter"
       d=""
       id="path4882"
       inkscape:connector-curvature="0"
       transform="matrix(0.7740518,0,0,0.74064243,96.777994,-39.563976)" />
    <path
       style="fill:#0000ff;stroke-linejoin:miter"
       d="m 265.08755,497.60635 c -46.79638,-17.18616 -79.58064,-44.97524 -91.64071,-77.67777 -3.6671,-9.94383 -11.02157,-29.9252 -16.34328,-44.40302 -8.00786,-21.7856 -9.66803,-37.04889 -9.63064,-88.5421 0.0408,-56.56656 1.20946,-65.26228 12.86151,-95.72119 7.04901,-18.42633 13.94151,-38.3799 15.31666,-44.34126 3.80928,-16.51298 45.26798,-52.084801 73.28759,-62.881163 38.63697,-14.887372 95.05895,-9.530698 188.35529,17.882353 l 11.61842,3.41382 1.26216,92.02024 1.26222,92.02022 -13.76817,0 c -7.57248,0 -15.06064,-2.15373 -16.64036,-4.78605 -1.61809,-2.69624 -24.05964,-4.78608 -51.39526,-4.78608 l -48.52302,0 0,-14.35818 0,-14.35816 46.47363,0 46.47359,0 0,-59.70282 0,-59.70286 -12.78023,-6.71995 C 375.60471,111.46372 297.87318,101.09479 297.87318,111.1689 c 0,2.01448 -10.49883,7.50282 -23.33077,12.19634 -32.19235,11.77495 -52.81455,32.02356 -70.68277,69.40237 -14.89945,31.16828 -15.1994,33.07484 -15.1994,96.60887 0,63.53401 0.29992,65.44056 15.1994,96.60888 18.20013,38.0731 37.52331,56.67322 73.88133,71.11676 49.97784,19.85416 108.09807,9.1361 145.42131,-26.81737 12.13667,-11.69124 23.41829,-21.25679 25.07021,-21.25679 1.65197,0 3.00356,13.73793 3.00356,30.52876 0,35.49047 1.69323,34.18531 -65.06301,50.15204 -52.17293,12.4787 -100.09982,15.60463 -121.08549,7.89759 z"
       id="path4884"
       inkscape:connector-curvature="0" />
    <path
       style="fill:#0000ff;stroke-linejoin:miter"
       d="m -317.90202,494.91264 c -5.1121,-2.11689 -17.82217,-4.00028 -28.24459,-4.18527 l -18.94986,-0.33641 -31.63574,-104.09679 c -17.39965,-57.25323 -34.52719,-109.48109 -38.06113,-116.06192 -3.53398,-6.58086 -18.65747,-52.34754 -33.60776,-101.70378 l -27.18235,-89.738599 21.88004,0 21.88001,0 7.49758,27.519839 c 4.1237,15.13589 10.95403,43.13438 15.17853,62.21876 l 7.68089,34.69893 38.28799,0 c 21.05841,0 57.19677,-1.38222 80.30744,-3.07164 l 42.01948,-3.07164 17.66983,-59.37789 17.66983,-59.377838 18.86793,1.42725 c 18.52764,1.40153 18.84124,1.729368 17.38669,18.178472 -1.15182,13.025656 -114.98318,397.384146 -118.51339,400.167706 -0.46019,0.36285 -5.01933,-1.07229 -10.13142,-3.18918 z m -7.6843,-63.15089 c 5.4645,-19.08443 11.9738,-45.46758 14.4651,-58.62924 2.49131,-13.16168 11.67851,-47.62129 20.41602,-76.57697 l 15.88635,-52.64661 -21.54157,-3.1703 c -11.84788,-1.7436 -42.17581,-3.35894 -67.39538,-3.58951 -41.50046,-0.37947 -45.6496,0.37589 -43.70273,7.95629 10.12374,39.41894 66.94103,221.35172 69.12824,221.35327 1.54467,0.001 7.27948,-15.61254 12.74397,-34.69693 z"
       id="path4886"
       inkscape:connector-curvature="0" />
    <path
       style="fill:#0000ff;stroke-linejoin:miter"
       d="m -125.03656,286.98346 0,-217.765703 27.884138,0 27.884153,0 0,110.559983 0,110.56001 60.1874332,-1.67716 c 39.9987458,-1.11457 62.1346088,-3.68387 65.9925218,-7.65975 3.192788,-3.29041 10.615083,-5.98256 16.494001,-5.98256 10.057387,0 10.688946,1.83811 10.688946,31.10939 0,29.27126 -0.631559,31.1094 -10.688946,31.1094 -5.878918,0 -13.301213,-2.69213 -16.494001,-5.98256 -3.857913,-3.97584 -25.993776,-6.54516 -65.9925218,-7.65974 l -60.1874332,-1.67715 -0.829864,57.91336 c -0.456435,31.8523 -0.979273,62.44668 -1.16184,67.98744 -0.323802,9.82573 1.329485,10.05642 67.0547676,9.35607 37.9466724,-0.4043 68.0635114,-2.71458 68.9358144,-5.28802 0.852026,-2.51353 10.785752,-4.57005 22.074985,-4.57005 l 20.525826,0 0,28.71636 0,28.71637 -20.913107,0 c -24.031644,0 -28.375871,-8.06611 -5.809202,-10.78621 8.307157,-1.0013 -22.539714,-0.86631 -68.548567,0.29995 -46.008871,1.16627 -85.639236,4.00282 -88.067491,6.3034 -2.428238,2.30056 -14.45328,4.18286 -26.722333,4.18286 l -22.30728,0 0,-217.76569 z m 45.105995,87.34556 c -1.107692,-5.92275 -2.013986,-1.07685 -2.013986,10.76863 0,11.84552 0.906294,16.6914 2.013986,10.76865 1.107743,-5.92273 1.107743,-15.61455 0,-21.53728 z M 74.73643,312.11025 c -0.122878,-11.58852 -5.714094,-27.51982 -9.658243,-27.51982 -2.194684,0 -2.251042,4.84586 -0.125258,10.76861 2.125783,5.92275 2.945399,13.4608 1.821374,16.75121 -1.124042,3.29043 0.222031,5.98258 2.990964,5.98258 2.769036,0 5.006089,-2.69215 4.97118,-5.98258 z M -79.881635,175.70759 c -1.064829,-7.23893 -1.93606,-1.3162 -1.93606,13.16162 0,14.47785 0.871231,20.40062 1.93606,13.1617 1.06483,-7.23894 1.06483,-19.08444 0,-26.32332 z"
       id="path4888"
       inkscape:connector-curvature="0" />
    <path
       style="fill:#000080;stroke-linejoin:miter"
       d="m 534.88853,346.19462 0,-152.43862 12.5242,-32.21846 c 16.78193,-43.17172 42.80256,-69.905008 78.90573,-81.06684 83.55728,-25.832985 148.11719,7.218391 162.38328,83.132 8.27913,44.05551 9.00455,322.23171 0.86214,330.61713 -3.06728,3.15878 -11.26133,5.74324 -18.20904,5.74324 l -12.63219,0 -1.5506,-159.13647 c -1.40707,-144.40199 -2.3548,-160.68747 -10.23559,-175.88767 -18.59568,-35.86677 -35.62668,-46.89712 -78.82384,-51.05132 -42.29774,-4.0677 -67.33152,11.66836 -85.1262,53.50965 -7.00717,16.47625 -8.3698,39.69113 -9.98874,170.17736 l -1.87467,151.09844 -18.11723,4.98009 -18.11725,4.98007 0,-152.4386 z"
       id="path4890"
       inkscape:connector-curvature="0" />
    <path
       style="fill:#000080;stroke-linejoin:miter"
       d="m 242.35601,487.01122 c -38.22165,-19.03173 -60.55153,-45.16685 -76.93258,-90.04264 -13.22324,-36.22493 -13.94209,-41.89581 -13.94209,-109.98512 0,-70.30766 0.329,-72.66763 15.92506,-114.22607 13.72591,-36.5752 19.00206,-44.93996 38.20733,-60.57395 35.23004,-28.678857 56.25761,-34.892269 109.47179,-32.347702 25.43879,1.216393 64.23042,7.097961 87.91554,13.329674 l 42.38848,11.152708 2.89025,31.50693 c 1.58964,17.32881 2.90504,59.21138 2.92324,93.0724 l 0.033,61.56548 -15.10394,-3.49911 c -8.30716,-1.92452 -37.58553,-4.45705 -65.06303,-5.62787 l -49.95914,-2.12875 0,-14.05958 0,-14.05961 46.47362,0 46.4736,0 0,-59.70282 0,-59.70286 -12.78023,-6.71995 c -16.15871,-8.49635 -56.80627,-17.45617 -79.19273,-17.45617 -22.5022,0 -80.63583,29.65309 -96.86094,49.40729 -6.86853,8.36248 -17.90507,27.05002 -24.52563,41.52785 -11.09787,24.26869 -12.03745,31.37437 -12.03745,91.03578 0,63.51879 0.28249,65.30329 15.31371,96.74731 8.80836,18.4263 22.6279,38.24798 32.53151,46.6606 52.14169,44.29187 134.59323,44.33474 183.39534,0.0954 11.62876,-10.54152 23.43637,-19.1664 26.23925,-19.1664 5.71576,0 6.99958,42.31214 1.53936,50.73365 -6.31885,9.74578 -22.57187,15.72148 -69.6103,25.5934 -65.36465,13.71797 -103.65059,12.83504 -135.71308,-3.12986 z"
       id="path4892"
       inkscape:connector-curvature="0" />
    <path
       style="fill:#000080;stroke-linejoin:miter"
       d="m -342.30067,491.64854 c -17.44217,-1.25664 -24.39864,-3.73833 -24.39864,-8.70421 0,-3.82051 -28.23269,-93.95942 -62.73936,-200.30865 -34.50662,-106.34926 -62.73935,-195.721059 -62.73935,-198.604036 0,-2.986253 8.60527,-5.241773 19.99839,-5.241773 l 19.99837,0 10.91433,46.664069 c 6.00288,25.66525 12.85935,53.93459 15.23666,62.82074 l 4.32231,16.15664 78.98555,-2.11634 c 56.26651,-1.5076 80.01766,-3.83614 82.57383,-8.09554 1.97353,-3.28856 10.6995,-30.78133 19.39099,-61.09505 l 15.80279,-55.11584 15.67972,2.579003 c 8.62384,1.41846 16.88494,3.820195 18.35795,5.337176 3.74086,3.852505 -6.8244,42.895301 -58.02892,214.440251 -24.51784,82.13945 -47.60614,159.5747 -51.3073,172.07825 -3.70118,12.50357 -9.18625,22.33537 -12.18905,21.84845 -3.00279,-0.48694 -16.439,-1.67635 -29.85827,-2.64314 z m 31.09241,-111.83253 c 10.23664,-40.52859 22.78581,-87.57621 27.88709,-104.55025 5.10127,-16.97408 8.26375,-31.90347 7.02773,-33.17634 -1.23606,-1.27295 -31.49393,-3.27569 -67.23972,-4.45053 -52.3627,-1.721 -64.99239,-0.88555 -64.99239,4.29925 0,8.12363 59.96197,204.582 66.20478,216.91222 6.75622,13.34427 9.61201,6.08973 31.11251,-79.03435 z"
       id="path4894"
       inkscape:connector-curvature="0" />
    <path
       style="fill:#0000ff;stroke-linejoin:miter"
       d="m 534.88853,347.3716 0,-153.6156 12.41118,-31.92774 c 17.11492,-44.02832 42.21068,-70.065539 78.21235,-81.14656 84.87362,-26.123364 151.42095,8.473959 164.44459,85.49319 7.37599,43.62012 7.0446,320.38557 -0.39277,328.04494 -3.06728,3.15878 -11.23937,5.74324 -18.16024,5.74324 l -12.58345,0 -1.67134,-156.74343 C 755.57906,196.0001 754.88263,185.14077 745.68711,164.49792 733.67949,137.54227 714.80375,123.0791 682.5347,116.10857 c -46.67051,-10.08139 -77.07461,4.89214 -96.54329,47.5461 -9.84467,21.56876 -10.48719,30.30115 -12.83035,174.37966 l -2.4667,151.67384 -10.50011,2.71404 c -5.77512,1.49266 -13.83139,4.03047 -17.9029,5.6395 -6.6774,2.63882 -7.40282,-12.12737 -7.40282,-150.69011 z"
       id="path4896"
       inkscape:connector-curvature="0" />
  </g>
</svg>
